<?xml version="1.0" encoding="UTF-8"?><svg id="a" xmlns="http://www.w3.org/2000/svg" viewBox="0 0 795.48 247.49"><path d="M671.73,0c-.18,0-.36,0-.53,0h0s-552.81,0-552.81,0v.12C52.53,2.92,0,57.2,0,123.75s52.53,120.83,118.39,123.63v.12h552.81c.18,0,.36,0,.53,0,68.34,0,123.74-55.4,123.74-123.74S740.08,0,671.73,0Z" style="fill:#fff;"/><path d="M413.08,218.24l1.44,6.94h-.29c-1.18.47-2.38.88-3.6,1.21-1.71.45-3.47.66-5.24.62-2.09.05-4.18-.28-6.16-.98-1.55-.62-2.91-1.62-3.96-2.92-1.02-1.37-1.73-2.95-2.06-4.62-.42-1.98-.61-4-.59-6.03v-29.48l8.58-1.44v10.22h11.92v7.3h-11.92v13.27c-.17,1.91.25,3.83,1.18,5.5,1.01,1.16,2.53,1.75,4.06,1.57,1.23.02,2.45-.12,3.64-.43,1.01-.29,1.9-.56,2.55-.82l.46.06h0ZM383.87,199.11c.48,1.81.71,3.67.69,5.53v20.67h-.33c-1.24.26-3.05.56-5.44.92-2.7.45-5.42.7-8.16.75-1.89.02-3.78-.18-5.63-.59-1.58-.33-3.07-.99-4.39-1.93-1.25-.89-2.25-2.09-2.92-3.47-.73-1.66-1.07-3.46-1.01-5.27-.05-1.78.35-3.54,1.18-5.11.82-1.34,1.94-2.46,3.28-3.28,1.4-.89,2.96-1.51,4.58-1.83,1.76-.39,3.56-.57,5.37-.56.92-.06,1.84-.06,2.75,0,.82,0,1.67.23,2.55.43v-.75c0-.84-.1-1.67-.3-2.49-.42-1.51-1.54-2.74-3.01-3.28-1.05-.38-2.16-.54-3.28-.49-1.63-.01-3.27.12-4.88.39-1.21.2-2.41.5-3.57.89h-.46l-1.11-7.11h.33c1.43-.44,2.89-.79,4.36-1.05,2.03-.35,4.09-.52,6.16-.52,2.22-.04,4.44.29,6.55.98,1.65.56,3.15,1.52,4.36,2.78,1.13,1.25,1.95,2.76,2.39,4.39h-.06,0ZM376.24,211.62l-1.51-.29c-.87-.14-1.74-.2-2.62-.2-.86,0-1.71.07-2.55.2-.78.12-1.54.34-2.26.65-.61.31-1.14.76-1.54,1.31-.39.64-.58,1.38-.56,2.13-.11,1.29.48,2.54,1.54,3.28,1.36.75,2.9,1.1,4.45,1.01,1.69.04,3.38-.07,5.04-.33v-7.76h0ZM347.85,195.51c-1.17-1.45-2.69-2.58-4.42-3.28-2.17-.88-4.5-1.32-6.85-1.28-1.16,0-2.33.1-3.47.29-.92.2-1.74.39-2.49.62v-16.37l-8.45,1.41v49.13h8.58v-26.69c.49,0,1.18-.29,2.06-.46,2.05-.49,4.2-.43,6.22.2.8.31,1.48.86,1.97,1.57.56.9.93,1.9,1.08,2.95.26,1.48.38,2.98.36,4.49v18.05h8.58v-19.26c.03-2.2-.2-4.4-.69-6.55-.46-1.77-1.31-3.42-2.49-4.82h0ZM307.53,181.2c-.52,2.88-1.05,5.9-1.64,8.97-.59,3.05-1.18,6.06-1.77,8.97-.59,2.92-1.21,5.73-1.8,8.45-.49,2.19-.98,4.29-1.51,6.26-.65-1.77-1.11-3.18-1.97-5.6-.85-2.42-1.67-4.94-2.49-7.37-.82-2.42-1.67-5.01-2.42-7.5-.75-2.49-1.51-4.91-2.16-7.21v-.3h-7.53v.3c-.62,2.26-1.41,4.78-2.1,7.17-.69,2.39-1.51,4.94-2.33,7.47-.82,2.52-1.8,5.47-2.46,7.37-.65,1.9-1.34,3.8-2.03,5.7-.52-1.97-1.05-4.09-1.57-6.32-.65-2.75-1.28-5.67-1.9-8.51-.62-2.85-1.21-5.86-1.8-8.91-.59-3.05-1.11-6.03-1.64-8.94v-.33h-9.5v.49c1.48,7.99,3.18,15.85,4.98,23.22,1.8,7.37,3.87,14.54,6.19,21.29v.26h8.51v-.26c1.6-4.36,3.41-9.27,4.88-13.53s2.95-8.78,4.42-13.49c2.95,9.69,5.96,18.77,9.24,27.02v.26h8.55v-.26c2.26-6.71,4.42-13.89,6.16-21.29,1.74-7.4,3.5-15.2,5.01-23.22v-.49h-9.2l-.13.33h0ZM441.78,212.84c-.42-1.13-1.08-2.16-1.93-3.01-.97-.93-2.07-1.72-3.28-2.33-1.54-.77-3.13-1.45-4.75-2.03-1.08-.39-2.03-.75-2.78-1.11-.63-.28-1.22-.63-1.77-1.05-.37-.26-.68-.61-.89-1.01-.16-.42-.24-.86-.23-1.31-.04-.89.45-1.73,1.24-2.13,1.15-.53,2.41-.78,3.67-.72,1.52-.03,3.04.12,4.52.46,1.12.23,2.22.57,3.28,1.01l.46.23,1.6-7.14h-.33c-1.34-.45-2.71-.8-4.09-1.05-1.91-.44-3.87-.67-5.83-.69-3.38-.17-6.72.78-9.5,2.72-2.34,1.83-3.65,4.67-3.54,7.63-.05,1.43.21,2.84.75,4.16.51,1.11,1.23,2.12,2.13,2.95.95.88,2.02,1.62,3.18,2.19,1.27.63,2.57,1.18,3.9,1.67,1.73.54,3.37,1.33,4.88,2.33.84.52,1.35,1.44,1.34,2.42.08.89-.39,1.74-1.18,2.16-1.37.55-2.85.79-4.32.69-1.81.03-3.62-.18-5.37-.62-1.39-.36-2.76-.81-4.09-1.34h-.46l-1.51,7.27h.33c1.25.49,2.53.89,3.83,1.21,2.36.56,4.78.81,7.21.75,3.65.22,7.28-.67,10.41-2.55,2.53-1.74,3.94-4.7,3.7-7.76.03-1.36-.17-2.71-.59-3.99h0ZM651.42,177.14h.03-.03ZM651.43,177.14c-1.35-.01-2.66.49-3.65,1.41-2.1,2.1-2.1,5.5,0,7.6h0c2.08,1.83,5.19,1.83,7.27,0,1.04-.97,1.6-2.35,1.54-3.77.07-1.44-.49-2.84-1.54-3.83-.98-.92-2.28-1.42-3.62-1.41h0ZM692.68,200.52c-.42-1.84-1.23-3.56-2.39-5.04-1.22-1.45-2.79-2.58-4.55-3.28-2.25-.83-4.64-1.22-7.04-1.15-2.69-.03-5.37.16-8.02.56-1.97.31-3.93.72-5.86,1.24h-.3v33.28h8.58v-27.12l2-.26c2.08-.38,4.22-.26,6.26.33.81.3,1.51.85,2,1.57.55.9.92,1.91,1.08,2.95.26,1.48.38,2.98.36,4.49v18.05h8.58v-19.26c0-2.14-.23-4.27-.72-6.35h.03ZM647.19,226.13h8.58v-34.36h-8.58v34.36ZM638.02,199.11c.46,1.81.69,3.67.69,5.53v20.67h-.33c-1.24.26-3.08.56-5.44.92-2.73.39-5.49.57-8.25.56-1.88.02-3.76-.18-5.6-.59-1.59-.33-3.1-.99-4.42-1.93-1.24-.9-2.23-2.09-2.88-3.47-.74-1.66-1.1-3.46-1.05-5.27-.05-1.77.36-3.51,1.18-5.08.82-1.34,1.94-2.46,3.28-3.28,1.4-.89,2.96-1.51,4.58-1.83,1.78-.39,3.59-.57,5.41-.56.91-.06,1.81-.06,2.72,0,.82,0,1.7.23,2.59.43v-.75c0-.84-.12-1.68-.33-2.49-.2-.73-.55-1.4-1.05-1.97-.52-.6-1.19-1.06-1.93-1.34-1.05-.37-2.16-.54-3.28-.49-1.62-.01-3.25.12-4.85.39-1.22.2-2.43.49-3.6.89h-.46l-1.08-7.11h.3c1.43-.43,2.89-.78,4.36-1.05,2.02-.33,4.07-.5,6.12-.49,2.22-.04,4.44.29,6.55.98,1.65.56,3.15,1.52,4.36,2.78,1.16,1.3,2.01,2.86,2.46,4.55h-.03,0ZM630.39,211.62l-1.54-.29c-1.7-.26-3.44-.26-5.14,0-.78.11-1.54.34-2.26.65-.62.29-1.15.74-1.54,1.31-1.06,1.84-.67,4.18.95,5.57,1.37.75,2.93,1.1,4.49,1.01,1.69.04,3.38-.07,5.04-.33v-7.92h0ZM567.8,216.64c-1.33.66-2.71,1.21-4.13,1.64-2.23.61-4.53.89-6.85.82-2.06.07-4.1-.32-5.99-1.15-1.61-.74-3.01-1.87-4.09-3.28-1.1-1.48-1.92-3.16-2.39-4.94-.56-2.14-.82-4.34-.79-6.55-.05-2.32.3-4.64,1.01-6.85.57-1.79,1.5-3.44,2.75-4.85,1.15-1.17,2.55-2.08,4.09-2.65,1.67-.66,3.45-1,5.24-.98,2.05-.01,4.09.27,6.06.85,1.49.42,2.94,1.01,4.29,1.77l.46.3,2.65-7.43-.29-.16-1.57-.82c-.88-.48-1.8-.88-2.75-1.21-1.3-.38-2.63-.69-3.96-.92-1.67-.3-3.38-.44-5.08-.43-2.96-.02-5.91.51-8.68,1.57-2.66,1.01-5.08,2.58-7.07,4.62-2.08,2.11-3.69,4.63-4.75,7.4-1.19,3.21-1.77,6.6-1.7,10.02-.06,3.4.44,6.78,1.48,10.02.92,2.75,2.39,5.28,4.32,7.43,1.92,2.04,4.29,3.62,6.91,4.62,2.91,1.09,6,1.62,9.1,1.57,1.63.08,3.26.06,4.88-.06,1.38-.17,2.75-.43,4.09-.79,1.11-.26,2.21-.6,3.28-1.01.76-.26,1.49-.61,2.16-1.05l.26-.2-2.42-7.34-.52.03h0ZM601.96,195.48h.03c-1.18-1.44-2.7-2.57-4.42-3.28-2.18-.87-4.5-1.29-6.85-1.24-1.1,0-2.19.11-3.28.29-.92.2-1.77.39-2.49.62v-16.37l-8.61,1.44v49.13h8.61v-26.72c.46,0,1.15-.29,2.03-.46,2.06-.49,4.23-.43,6.26.2.79.32,1.48.87,1.97,1.57.55.9.92,1.91,1.08,2.95.24,1.48.35,2.98.33,4.49v18.05h8.58v-19.26c.03-2.2-.19-4.4-.65-6.55-.52-1.77-1.41-3.42-2.59-4.85h0ZM679.31,118.34c-8.06,11.78-20.36,19.99-34.33,22.93h-.28c-2.01.43-4.09.74-6.2,1.02l-1.7.19c-2.26.19-4.55.34-6.97.34h-56.24c-1.43-.04-2.79-.62-3.8-1.63-2.21-2.19-2.23-5.76-.04-7.97,1.81-1.75,3.51-3.6,5.11-5.55,2.29-2.75,4.37-5.67,6.2-8.74,1.77-3.1,5.05-5.02,8.61-5.05h40.28c10.16.5,19.88-4.16,25.84-12.39,4.68-6.45,13.68-7.92,20.17-3.32,6.49,4.65,7.99,13.68,3.35,20.17h0ZM330.74,142.94h72.54c3.1-.08,5.55-2.66,5.48-5.76-.02-1.46-.63-2.85-1.67-3.87-1.81-1.75-3.51-3.6-5.11-5.55-2.3-2.75-4.37-5.68-6.2-8.77-1.77-3.1-5.05-5.02-8.61-5.05h-5.76c-1.71.08-3.16-1.23-3.25-2.94,0-.05,0-.11,0-.16v-22.25c0-8.04-6.52-14.56-14.56-14.56s-14.56,6.52-14.56,14.56v22.16c.08,1.71-1.23,3.16-2.94,3.25-.05,0-.11,0-.16,0h-15.18c-12.64.74-24.34-6.67-29.06-18.41-3.41-8.8-3.41-18.56,0-27.36,4.73-11.74,16.43-19.15,29.06-18.41,8.01,0,14.5-6.49,14.5-14.5,0-8.01-6.49-14.5-14.5-14.5-29.04,0-47.66,16.08-55.78,36.66-6.23,15.7-6.23,33.19,0,48.9,8.12,20.48,26.77,36.56,55.78,36.56h0ZM522.55,105.23c8.6.28,16.52-4.68,20.02-12.55.77-1.92,1-4,.68-6.04-.84-6.29-.04-12.69,2.29-18.59,4.72-11.75,16.42-19.18,29.06-18.44h55.25c1.52,0,3.1,0,4.52.28l1.33.19c1.02.15,2.01.37,3.1.59l1.3.31c1.05.32,2.09.69,3.1,1.11.68.28,1.33.59,1.98.93l.99.53c2.4,1.3,4.59,2.95,6.51,4.9,1.13,1.18,2.17,2.44,3.1,3.78,4.81,6.42,13.92,7.73,20.34,2.92,4.58-3.43,6.73-9.24,5.47-14.82-.4-1.74-1.13-3.39-2.14-4.87-11.18-16.22-29.9-25.57-49.58-24.79h-55.28c-2.39,0-4.71.15-6.97.37l-1.67.19c-2.07.25-4.13.59-6.2,1.02h-.19c-18.72,4-34.12,17.24-40.9,35.14-5.58,14.05-6.19,29.58-1.74,44.03.8,2.39,3.1,3.94,5.61,3.81h0ZM402.26,49.67c12.64-.75,24.34,6.66,29.06,18.41,2.29,5.86,3.07,12.2,2.26,18.44-.32,2.09-.06,4.24.74,6.2,3.51,7.88,11.43,12.86,20.05,12.61,2.44.02,4.61-1.55,5.36-3.87,4.48-14.45,3.88-30-1.7-44.06-8.82-22.9-31.25-37.65-55.78-36.66-8.03,0-14.53,6.51-14.53,14.53.07,7.98,6.55,14.41,14.53,14.41h0ZM50.37,121.43c.48-5.76-1.93-9.14-6.68-9.54v.04c-4.99-.44-7.93,2.54-8.41,8.29l-.89,10.63,23.14,1.89.48-6.04-8.05-.68.4-4.59ZM45.58,125.69l-6.12-.52.28-3.66c.24-2.7,1.33-3.74,3.38-3.58l-.04.04c2.09.16,3.02,1.41,2.78,4.06l-.28,3.66ZM177.35,150.28c-1.73,5.31-.52,8.73,3.3,9.98,2.66.89,5.23-.08,6.84-3.3-.52,3.18.97,5.27,3.46,6.12,3.82,1.29,6.72-.52,8.57-5.96l3.54-10.71.04-.04-22.01-7.32-3.74,11.23ZM190.79,153.1l1.37-4.15,4.83,1.61-1.37,4.15c-.68,2.05-1.81,2.82-3.42,2.29-1.61-.52-2.05-1.85-1.37-3.9h-.04ZM181.65,150.69l1.57-4.71,4.87,1.61-1.57,4.71c-.68,2.05-1.89,2.82-3.42,2.29-1.61-.52-2.13-1.81-1.45-3.9ZM173.36,173.63l16.42,3.9-4.23,4.63-6.92-1.89-4.02-1.33,1.69,3.9,2.5,6.72-4.15,4.55-5.35-15.98v-.04l-6.28-5.71,4.06-4.47,6.28,5.72ZM177.59,107.91c2.41,6.84,7.69,9.22,14.69,6.72h.04c6.96-2.5,9.58-7.65,7.16-14.49l-3.3-9.3-21.89,7.77,3.3,9.3ZM193.85,98.08l1.09,3.02c1.29,3.7-.36,6.12-4.75,7.69h.04c-4.39,1.57-7.2.72-8.53-2.98l-1.09-3.02,13.24-4.71ZM170.87,93.21l-12.88-13.36,16.7-16.1,12.56,13.04-3.38,3.26-8.37-8.65-3.38,3.26,6.64,6.88-3.18,3.06-6.64-6.88-3.42,3.3,8.65,8.97.08-.04-3.38,3.26ZM61.92,82.27v-.04c-6.48-3.74-12.52-2.25-16.06,3.86-3.54,6.12-1.81,12.11,4.67,15.86,6.48,3.78,12.52,2.25,16.06-3.86,3.54-6.12,1.81-12.07-4.67-15.82ZM62.48,95.75c-1.69,2.9-4.75,3.26-8.85.89-4.11-2.37-5.31-5.19-3.62-8.13,1.65-2.86,4.71-3.22,8.81-.85,4.11,2.37,5.35,5.19,3.66,8.09ZM158.35,60.9c1.81-4.43-.12-8.05-5.31-10.14l-10.26-4.19-8.77,21.49,5.51,2.25,3.18-7.85,3.34,1.37v-.04l1.41,9.74,6.2,2.54-2.01-10.67c3.1.16,5.43-1.37,6.72-4.51ZM152.68,58.72c-.8,1.89-2.17,2.29-4.55,1.33l-3.82-1.57,2.21-5.43,3.82,1.57c2.41.97,3.1,2.21,2.33,4.11ZM91.62,46.85l5.96,23.42-5.67,3.34-8.05-8.33-3.78-4.35h-.08l1.97,5.43,3.34,11.07h.04l-5.88,3.42-17.51-16.66,5.59-3.3,12.64,14.01-5.71-18.03,4.75-2.78,13,13.76-6-17.83,5.39-3.18ZM127.52,62.18l.16,4.67-18.51.56-.72-23.22,18.07-.56.16,4.67-12.03.36.16,4.71,9.58-.28.12,4.39-9.58.28.16,4.75,12.48-.4-.04.08Z" style="fill:#333;"/><path d="M144.91,127.42h-25.23l15.09-41.7-46.2,58h25.23l-22.06,60.97,53.17-77.23v-.04ZM526.5,200.42c.47,2.12.7,4.28.69,6.45l-.03-.13v19.26h-8.48v-17.91c.01-1.5-.1-3-.36-4.49-.17-1.04-.53-2.04-1.08-2.95-.49-.72-1.18-1.27-2-1.57-2.03-.59-4.17-.7-6.26-.33l-2,.26v27.12h-8.65v-33.18h.29c1.93-.52,3.89-.94,5.86-1.24,2.65-.47,5.33-.72,8.02-.75,2.39-.08,4.77.31,7.01,1.15,1.78.69,3.36,1.81,4.58,3.28,1.16,1.48,1.97,3.21,2.39,5.04h0ZM489.2,193.28c1.22,3.25,1.81,6.71,1.74,10.19.06,3.48-.52,6.95-1.74,10.22-1.02,2.78-2.61,5.32-4.68,7.43-1.97,1.99-4.35,3.52-6.98,4.49-2.72,1-5.59,1.51-8.48,1.51-2.91,0-5.79-.51-8.51-1.51-2.63-.98-5.02-2.51-7.01-4.49-2.08-2.13-3.69-4.66-4.75-7.43-2.31-6.6-2.31-13.8,0-20.4,1.08-2.77,2.72-5.29,4.82-7.4,1.99-2,4.39-3.54,7.04-4.52,5.43-2.01,11.4-2.01,16.83,0,2.63.98,5.01,2.52,6.98,4.52,2.06,2.12,3.68,4.64,4.75,7.4h0ZM481.7,203.47c.02-2.19-.27-4.38-.89-6.48-.49-1.79-1.35-3.47-2.52-4.91-1.06-1.38-2.43-2.5-3.99-3.28-1.66-.75-3.45-1.13-5.27-1.11-1.85-.04-3.68.31-5.37,1.05-1.57.76-2.94,1.89-3.99,3.28-1.14,1.47-2,3.13-2.52,4.91-.62,2.13-.92,4.34-.89,6.55-.03,2.22.27,4.42.89,6.55.52,1.79,1.37,3.47,2.52,4.94,1.05,1.4,2.42,2.52,3.99,3.28,1.67.77,3.5,1.15,5.34,1.11,1.82.03,3.62-.35,5.27-1.11,1.57-.76,2.95-1.88,3.99-3.28,1.17-1.46,2.03-3.14,2.52-4.94.62-2.13.92-4.34.89-6.55h.03ZM448.77,26.62c-.17-3.08,2.18-5.71,5.26-5.88.12,0,.23,0,.35,0h68.17c3.11.06,5.59,2.63,5.53,5.74-.03,1.47-.62,2.86-1.66,3.9-4.25,4.1-7.93,8.76-10.94,13.85-2.02,3.43-5.71,5.54-9.7,5.55h-35.51c-3.57-.03-6.85-1.95-8.61-5.05-1.83-3.07-3.91-5.99-6.2-8.74-1.56-1.98-3.25-3.85-5.05-5.61-1-1-1.58-2.34-1.64-3.75h0ZM455.24,142.91h66.09c24.51.99,46.94-13.74,55.78-36.63,5.69-14.2,6.3-29.93,1.74-44.53-.7-2.05-2.67-3.4-4.83-3.32-4.15.08-8.23,1.06-11.96,2.88-2.06,1.12-3.91,2.61-5.42,4.4-1.3,1.68-2.34,3.53-3.1,5.51-.73,1.98-.96,4.11-.65,6.2.7,6.13-.15,12.34-2.45,18.07-4.72,11.75-16.43,19.16-29.06,18.41h-66.12c-12.64.75-24.34-6.66-29.06-18.41-2.32-5.91-3.09-12.3-2.26-18.59.31-1.97.1-3.99-.62-5.86-1.86-4.52-6.91-11.99-20.14-12.61-2.51-.11-4.79,1.46-5.58,3.84-4.46,14.44-3.85,29.96,1.74,44,8.85,22.95,31.36,37.69,55.93,36.63h0Z" style="fill:#fbba00;"/></svg>